<svg width="540" height="473" viewBox="0 0 540 473" fill="none" xmlns="http://www.w3.org/2000/svg">
<g clip-path="url(#clip0_29_2)">
<path d="M79.0544 427.856C184.46 488.45 355.368 488.45 460.774 427.856C566.18 367.263 566.18 269.019 460.774 208.413C355.368 147.806 184.508 147.819 79.0544 208.413C-26.3997 269.006 -26.3033 367.263 79.0544 427.856Z" fill="#F5F5F5"/>
<path d="M49.6719 328.485L15.4083 306.723V225.852L49.6719 247.628V328.485Z" fill="#E0E0E0"/>
<path d="M49.6719 247.628L98.6267 216.529V297.386L49.6719 328.485V247.628Z" fill="#EBEBEB"/>
<path d="M98.6266 216.529L49.6719 247.628L15.4083 225.852L64.3631 194.753L98.6266 216.529Z" fill="#F5F5F5"/>
<path d="M54.577 250.732L93.7336 225.852L94.6375 226.423V256.381L55.4688 281.26L54.5649 280.69L54.577 250.732Z" fill="#E0E0E0"/>
<path d="M55.4688 251.315L94.6375 226.422V256.381L55.4688 281.26V251.315Z" fill="#F5F5F5"/>
<path d="M70.8229 246.633L77.4876 242.403C78.3433 241.846 79.0423 242.098 79.0423 242.96C78.9802 243.488 78.8074 243.993 78.5376 244.434C78.2678 244.876 77.9083 245.243 77.4876 245.506L70.8229 249.737C69.9552 250.294 69.2562 250.042 69.2562 249.18C69.3186 248.65 69.4929 248.144 69.7649 247.702C70.037 247.26 70.3993 246.894 70.8229 246.633Z" fill="#E0E0E0"/>
<path d="M53.6731 288.633L92.8297 263.754V293.713L93.7336 294.283L54.5649 319.162L53.6731 318.592V288.633Z" fill="#E0E0E0"/>
<path d="M54.5649 289.204L93.7336 264.325V294.283L54.5649 319.163V289.204Z" fill="#F5F5F5"/>
<path d="M69.9191 284.536L76.644 280.319C77.5118 279.762 78.2108 280.014 78.2108 280.876C78.1483 281.405 77.9741 281.911 77.702 282.353C77.43 282.796 77.0676 283.162 76.644 283.422L69.9793 287.653C69.1116 288.21 68.4126 287.958 68.4126 287.096C68.4668 286.57 68.631 286.065 68.8924 285.621C69.1538 285.177 69.5052 284.805 69.9191 284.536Z" fill="#E0E0E0"/>
<path d="M49.6719 242.96L15.4083 221.184V140.326L49.6719 162.089V242.96Z" fill="#E0E0E0"/>
<path d="M49.6719 162.089L98.6267 130.99V211.861L49.6719 242.96V162.089Z" fill="#EBEBEB"/>
<path d="M98.6266 130.99L49.6719 162.089L15.4083 140.326L64.3631 109.227L98.6266 130.99Z" fill="#F5F5F5"/>
<path d="M54.5649 165.205L93.7336 140.326L94.6375 140.896V170.855L55.4688 195.734L54.5649 195.151V165.205Z" fill="#E0E0E0"/>
<path d="M70.8229 161.094L77.4756 156.864C78.3433 156.32 79.0423 156.572 79.0423 157.434C78.978 157.963 78.803 158.468 78.5312 158.91C78.2593 159.352 77.8979 159.718 77.4756 159.98L70.8229 164.211C69.9552 164.754 69.2562 164.516 69.2562 163.654C69.3196 163.123 69.4941 162.615 69.766 162.171C70.0378 161.727 70.3996 161.358 70.8229 161.094Z" fill="#E0E0E0"/>
<path d="M53.6731 203.108L92.8297 178.229V208.174L93.7336 208.744L54.5649 233.623L53.6731 233.053V203.108Z" fill="#E0E0E0"/>
<path d="M54.5649 203.678L93.7336 178.799V208.744L54.5649 233.623V203.678Z" fill="#F5F5F5"/>
<path d="M69.919 198.997L76.644 194.766C77.4997 194.223 78.2107 194.475 78.2107 195.337C78.1429 195.864 77.9665 196.368 77.695 196.809C77.4235 197.25 77.064 197.618 76.644 197.883L69.919 202.074C69.0513 202.617 68.3523 202.365 68.3523 201.517C68.421 200.993 68.5979 200.493 68.8696 200.056C69.1412 199.62 69.5002 199.257 69.919 198.997Z" fill="#E0E0E0"/>
<path d="M54.5649 165.205L93.7336 140.326V170.271L54.5649 195.151V165.205Z" fill="#E0E0E0"/>
<path d="M113.318 155.127L91.8776 141.507V167.898L113.318 181.504V155.127Z" fill="#E0E0E0"/>
<path d="M69.2562 199.421V162.089L77.6563 156.731L79.0423 158.986L103.52 143.43V177.645L69.2562 199.421Z" fill="#EBEBEB"/>
<path d="M69.2562 199.421L71.7027 166.757L105.966 144.994L103.52 177.645L69.2562 199.421Z" fill="#F5F5F5"/>
<path d="M74.1492 180.006L55.4688 168.136V194.527L74.1492 206.383V180.006Z" fill="#EBEBEB"/>
<path d="M74.1492 177.645L113.318 152.766V182.711L74.1492 207.59V177.645Z" fill="#F5F5F5"/>
<path d="M89.5034 172.964L96.156 168.733C97.0238 168.189 97.7228 168.441 97.7228 169.303C97.6576 169.832 97.4823 170.337 97.2105 170.779C96.9387 171.22 96.5778 171.587 96.156 171.85L89.5034 176.08C88.6356 176.624 87.9366 176.372 87.9366 175.523C88.0001 174.992 88.1746 174.485 88.4464 174.041C88.7183 173.597 89.0801 173.228 89.5034 172.964Z" fill="#E0E0E0"/>
<path d="M74.1493 177.645L72.8477 176.822V206.768L74.1493 207.59V177.645Z" fill="#E0E0E0"/>
<path d="M72.8477 176.823L112.004 151.93L113.318 152.766L74.1493 177.645L72.8477 176.823Z" fill="#EBEBEB"/>
<path d="M454.471 279.496L420.195 257.72V176.862L454.471 198.625V279.496Z" fill="#E0E0E0"/>
<path d="M454.471 198.626L503.426 167.526V248.397L454.471 279.496V198.626Z" fill="#EBEBEB"/>
<path d="M503.426 167.526L454.471 198.625L420.195 176.863L469.162 145.75L503.426 167.526Z" fill="#F5F5F5"/>
<path d="M459.364 201.742L498.533 176.862L499.436 177.433L499.424 207.378L460.268 232.257L459.364 231.687V201.742Z" fill="#E0E0E0"/>
<path d="M460.268 202.312L499.436 177.433L499.424 207.378L460.268 232.258V202.312Z" fill="#F5F5F5"/>
<path d="M475.622 197.631L482.275 193.4C483.142 192.857 483.841 193.109 483.841 193.957C483.778 194.488 483.603 194.996 483.332 195.44C483.06 195.884 482.698 196.253 482.275 196.517L475.622 200.747C474.754 201.291 474.055 201.039 474.055 200.19C474.119 199.66 474.293 199.152 474.565 198.708C474.837 198.264 475.199 197.895 475.622 197.631Z" fill="#E0E0E0"/>
<path d="M458.46 239.644L497.629 214.752V244.71L498.533 245.28L459.364 270.16L458.46 269.589V239.644Z" fill="#E0E0E0"/>
<path d="M459.364 240.214L498.533 215.335V245.28L459.364 270.159V240.214Z" fill="#F5F5F5"/>
<path d="M474.718 235.533L481.383 231.302C482.238 230.758 482.937 231.01 482.937 231.859C482.873 232.388 482.7 232.894 482.431 233.338C482.161 233.782 481.803 234.151 481.383 234.419L474.718 238.649C473.85 239.193 473.151 238.941 473.151 238.079C473.216 237.55 473.392 237.046 473.664 236.604C473.935 236.162 474.296 235.796 474.718 235.533Z" fill="#E0E0E0"/>
<path d="M128.467 364.014C128.467 364.014 128.6 342.981 116.548 327.213C105.882 313.248 100.205 304.389 103.568 300.304C106.93 296.22 114.162 295.238 123.912 306.537C133.662 317.837 134.421 349.135 133.071 356.216L128.467 364.014Z" fill="#02897A"/>
<path opacity="0.2" d="M128.467 364.014C128.467 364.014 128.6 342.981 116.548 327.213C105.882 313.248 100.205 304.389 103.568 300.304C106.93 296.22 114.162 295.238 123.912 306.537C133.662 317.837 134.421 349.135 133.071 356.216L128.467 364.014Z" fill="black"/>
<path d="M130.492 341.402C130.355 341.403 130.221 341.352 130.114 341.258C130.007 341.164 129.932 341.033 129.901 340.885C125.683 319.176 114.861 307.174 108.774 301.948C108.648 301.841 108.566 301.683 108.546 301.509C108.526 301.335 108.569 301.159 108.666 301.02C108.766 300.881 108.911 300.79 109.072 300.768C109.232 300.745 109.393 300.793 109.522 300.901C115.728 306.206 126.78 318.486 131.082 340.607C131.1 340.691 131.102 340.779 131.089 340.864C131.075 340.95 131.046 341.031 131.003 341.104C130.961 341.177 130.905 341.24 130.84 341.289C130.775 341.338 130.702 341.372 130.624 341.389L130.492 341.402Z" fill="white"/>
<path d="M128.009 371.826L123.104 374.942C122.581 373.369 121.698 371.97 120.542 370.881C119.385 369.792 117.993 369.048 116.5 368.722C111.137 367.396 105.569 367.622 101.808 362.503C98.0482 357.384 102.628 351.814 101.808 348.047C100.989 344.281 100.459 343.193 93.7337 339.427C87.0087 335.661 84.3573 329.414 89.4191 325.184C94.4809 320.953 102.676 324.056 107.642 327.836C112.053 331.152 116.247 332.027 121.176 332.703C126.105 333.38 134.132 336.39 132.902 348.989C132.097 356.787 130.455 364.453 128.009 371.826Z" fill="#02897A"/>
<path d="M109.184 355.275C109.056 355.274 108.931 355.228 108.827 355.145C108.723 355.062 108.646 354.945 108.606 354.811C108.56 354.642 108.576 354.46 108.65 354.304C108.725 354.148 108.851 354.03 109.003 353.975C109.437 353.829 119.85 350.196 124.273 354.095C124.383 354.209 124.45 354.364 124.461 354.53C124.471 354.695 124.425 354.859 124.331 354.989C124.237 355.12 124.102 355.206 123.953 355.232C123.804 355.258 123.652 355.221 123.526 355.129C119.621 351.681 109.473 355.209 109.365 355.248L109.184 355.275Z" fill="white"/>
<path d="M128.552 370.817C128.405 370.818 128.263 370.759 128.154 370.651C128.045 370.543 127.976 370.394 127.961 370.234C125.273 342.304 94.6978 329.056 94.3965 328.923C94.3218 328.892 94.2534 328.845 94.1953 328.785C94.1371 328.725 94.0905 328.653 94.058 328.572C94.0254 328.492 94.0077 328.406 94.0058 328.318C94.004 328.23 94.0179 328.143 94.047 328.061C94.1062 327.9 94.2193 327.771 94.3628 327.699C94.5064 327.628 94.6694 327.619 94.8183 327.676C95.1437 327.822 126.394 341.349 129.154 370.114C129.171 370.288 129.125 370.463 129.026 370.599C128.926 370.736 128.782 370.824 128.624 370.844L128.552 370.817Z" fill="white"/>
<path d="M428.318 353.485C428.451 353.02 433.621 323.738 428.318 302.97C423.498 283.926 417.207 276.897 408.24 275.346C399.273 273.794 395.381 280.902 400.141 290.531C404.902 300.159 416.363 312.93 419.171 334.441C420.376 343.299 421.292 350.991 421.292 350.991L428.318 353.485Z" fill="#02897A"/>
<path opacity="0.2" d="M428.318 353.485C428.451 353.02 433.621 323.738 428.318 302.97C423.498 283.926 417.207 276.897 408.24 275.346C399.273 273.794 395.381 280.902 400.141 290.531C404.902 300.159 416.363 312.93 419.171 334.441C420.376 343.299 421.292 350.991 421.292 350.991L428.318 353.485Z" fill="black"/>
<path d="M425.293 336.668C425.214 336.663 425.137 336.641 425.065 336.603C424.994 336.565 424.93 336.512 424.877 336.446C424.825 336.381 424.784 336.305 424.759 336.223C424.733 336.14 424.722 336.053 424.727 335.966C425.932 312.253 418.894 291.088 406.275 280.703C406.148 280.598 406.063 280.441 406.04 280.267C406.018 280.093 406.059 279.916 406.155 279.775C406.253 279.637 406.395 279.547 406.552 279.522C406.71 279.497 406.87 279.54 406.999 279.643C419.93 290.252 427.185 311.895 425.92 336.045C425.911 336.219 425.84 336.381 425.723 336.498C425.605 336.614 425.451 336.676 425.293 336.668Z" fill="white"/>
<path d="M442.19 368.736C441.503 363.285 444.347 355.116 451.108 353.18C457.869 351.243 460.882 346.973 458.448 342.305C456.013 337.637 456.58 333.353 462.714 331.417C468.849 329.481 474.224 326.112 470.693 318.977C468.126 313.818 467.559 310.476 473.85 300.318C479.069 291.883 474.802 286.937 468.27 287.865C461.738 288.793 457.701 297.36 453.615 298.793C449.53 300.225 448.59 292.586 443.202 296.008C437.815 299.429 438.141 308.195 437.972 314.309C437.803 320.423 437.442 321.802 432.573 321.059C427.704 320.317 422.931 321.192 423.04 334.149C423.124 345.262 428.511 359.028 428.511 359.028L442.19 368.736Z" fill="#02897A"/>
<path d="M433.645 360.447H433.585C433.424 360.427 433.277 360.338 433.175 360.199C433.073 360.06 433.026 359.882 433.043 359.704C436.441 326.298 462.498 298.116 469.295 292.401C469.423 292.293 469.584 292.246 469.743 292.27C469.903 292.294 470.047 292.386 470.145 292.527C470.242 292.667 470.285 292.845 470.263 293.02C470.242 293.195 470.158 293.354 470.03 293.462C463.317 299.098 437.598 326.908 434.248 359.85C434.23 360.013 434.16 360.164 434.049 360.274C433.938 360.383 433.795 360.445 433.645 360.447Z" fill="white"/>
<path d="M445.528 324.733C445.406 324.732 445.287 324.692 445.186 324.616C445.086 324.54 445.007 324.434 444.962 324.309C444.91 324.142 444.919 323.959 444.987 323.799C445.054 323.638 445.174 323.512 445.324 323.447C455.037 319.468 466.053 321.351 466.523 321.431C466.679 321.46 466.818 321.556 466.911 321.698C467.003 321.839 467.041 322.015 467.017 322.187C466.988 322.358 466.9 322.511 466.773 322.614C466.646 322.717 466.487 322.764 466.33 322.744C466.222 322.744 455.158 320.834 445.745 324.693C445.675 324.719 445.602 324.733 445.528 324.733Z" fill="white"/>
<path d="M436.875 344.811C436.791 344.81 436.707 344.79 436.63 344.751C436.554 344.712 436.485 344.656 436.429 344.586C432.389 339.409 429.651 333.159 428.487 326.457C428.475 326.371 428.479 326.283 428.498 326.198C428.517 326.113 428.551 326.034 428.598 325.963C428.645 325.893 428.704 325.834 428.772 325.789C428.84 325.744 428.915 325.714 428.993 325.701C429.072 325.688 429.151 325.692 429.228 325.713C429.305 325.734 429.378 325.771 429.442 325.823C429.506 325.874 429.559 325.939 429.6 326.014C429.641 326.089 429.668 326.172 429.68 326.258C430.832 332.696 433.468 338.701 437.333 343.697C437.408 343.795 437.457 343.914 437.473 344.041C437.489 344.168 437.473 344.297 437.425 344.414C437.377 344.531 437.299 344.63 437.202 344.7C437.105 344.771 436.992 344.809 436.875 344.811Z" fill="white"/>
<path d="M128.009 166.571V371.838L318.935 250.545L318.923 63.9375L176.964 154.131L172.059 138.575L128.009 166.571Z" fill="#22343D"/>
<path d="M128.009 371.838L137.795 185.23L328.721 63.9375L318.935 250.545L128.009 371.838Z" fill="#E0E0E0"/>
<path d="M128.009 371.838L142.688 188.347L333.614 67.0413L318.935 250.545L128.009 371.838Z" fill="#22343D"/>
<path d="M157.38 185.231V390.511L348.306 269.205V82.5978L206.334 172.792L201.441 157.235L157.38 185.231Z" fill="#F03E3D"/>
<path d="M157.38 390.511L167.166 203.891L358.092 82.5978L348.306 269.205L157.38 390.511Z" fill="#E0E0E0"/>
<path d="M157.38 390.511L172.059 207.007L362.985 85.7008L348.306 269.205L157.38 390.511Z" fill="#F03E3D"/>
<path d="M318.887 455.826C284.611 434.05 252.819 410.378 238.308 382.607L282.418 354.585L318.887 455.826Z" fill="#E0E0E0"/>
<path d="M191.643 207.007V412.274L382.569 290.981V104.373L240.598 194.567L235.705 179.011L191.643 207.007Z" fill="#02897A"/>
<path opacity="0.2" d="M191.643 207.007V412.274L382.569 290.981V104.373L240.598 194.567L235.705 179.011L191.643 207.007Z" fill="black"/>
<path d="M246.648 267.693C246.166 267.693 246.094 267.083 246.094 266.725V91.6681C246.132 90.9891 246.314 90.3291 246.623 89.74C246.932 89.151 247.362 88.6489 247.877 88.2731L385.679 0.744909C385.867 0.615387 386.083 0.542243 386.305 0.532715C386.787 0.532715 386.86 1.14276 386.86 1.50083V176.557C386.822 177.238 386.641 177.901 386.332 178.492C386.022 179.083 385.592 179.588 385.076 179.966L247.275 267.494C247.084 267.617 246.869 267.685 246.648 267.693Z" fill="white"/>
<path d="M386.233 1.14321C386.243 1.24017 386.243 1.33801 386.233 1.43497V176.491C386.193 177.056 386.04 177.604 385.783 178.095C385.527 178.586 385.174 179.007 384.751 179.329L246.949 266.858L246.708 266.977C246.692 266.881 246.692 266.782 246.708 266.685V91.6288C246.75 91.0665 246.904 90.5214 247.16 90.0328C247.417 89.5443 247.769 89.1246 248.191 88.804L385.992 1.27583C386.068 1.21733 386.154 1.1767 386.245 1.15647L386.233 1.14321ZM386.317 -0.16971C385.989 -0.158958 385.669 -0.0537904 385.389 0.135317L247.588 87.6635C246.982 88.1014 246.478 88.6894 246.116 89.3803C245.754 90.0712 245.544 90.8458 245.503 91.6421V266.698C245.503 267.733 245.973 268.33 246.708 268.33C247.037 268.32 247.357 268.215 247.636 268.025L385.438 180.496C386.046 180.062 386.552 179.474 386.915 178.783C387.277 178.091 387.485 177.315 387.523 176.518V1.4615C387.523 0.427078 387.053 -0.182972 386.317 -0.16971Z" fill="#02897A"/>
<path opacity="0.7" d="M386.233 1.14321C386.243 1.24017 386.243 1.33801 386.233 1.43497V176.491C386.193 177.056 386.04 177.604 385.783 178.095C385.527 178.586 385.174 179.007 384.751 179.329L246.949 266.858L246.708 266.977C246.692 266.881 246.692 266.782 246.708 266.685V91.6288C246.75 91.0665 246.904 90.5214 247.16 90.0328C247.417 89.5443 247.769 89.1246 248.191 88.804L385.992 1.27583C386.068 1.21733 386.154 1.1767 386.245 1.15647L386.233 1.14321ZM386.317 -0.16971C385.989 -0.158958 385.669 -0.0537904 385.389 0.135317L247.588 87.6635C246.982 88.1014 246.478 88.6894 246.116 89.3803C245.754 90.0712 245.544 90.8458 245.503 91.6421V266.698C245.503 267.733 245.973 268.33 246.708 268.33C247.037 268.32 247.357 268.215 247.636 268.025L385.438 180.496C386.046 180.062 386.552 179.474 386.915 178.783C387.277 178.091 387.485 177.315 387.523 176.518V1.4615C387.523 0.427078 387.053 -0.182972 386.317 -0.16971Z" fill="white"/>
<path d="M260.182 98.3129L309.137 67.2139V129.412L260.182 160.511V98.3129Z" fill="#02897A"/>
<path opacity="0.8" d="M260.182 98.3129L309.137 67.2139V129.412L260.182 160.511V98.3129Z" fill="#11B5E4"/>
<path d="M301.797 82.7173V101.417L300.255 102.358V96.6422C300.255 93.4859 297.929 92.4117 295.036 94.2418L274.295 107.437C271.415 109.268 269.077 113.312 269.077 116.469V122.185L267.546 123.192V104.533L301.797 82.7173Z" fill="white"/>
<path d="M292.373 130.327C289.866 131.918 287.829 130.247 287.829 126.574V96.6418L281.526 100.408V130.579C281.526 134.239 279.489 138.536 276.983 140.088L272.427 142.979V144.968L296.904 129.412V127.436L292.373 130.327Z" fill="white"/>
<path d="M318.887 64.1506C318.887 65.8746 320.297 66.3653 322.021 65.2779L369.65 34.9745C370.495 34.4474 371.217 33.7122 371.761 32.8264C372.305 31.9405 372.655 30.9282 372.783 29.8687C372.783 28.1579 371.373 27.654 369.65 28.7547L322.057 58.9917C321.198 59.5178 320.463 60.2589 319.913 61.1551C319.362 62.0512 319.011 63.0774 318.887 64.1506Z" fill="#455A64"/>
<path d="M318.887 82.7171C318.887 84.4411 320.297 84.9451 322.021 83.8444L369.613 53.6073C370.459 53.0803 371.181 52.345 371.725 51.4592C372.269 50.5733 372.618 49.561 372.747 48.5015C372.747 46.7907 371.337 46.2868 369.613 47.3875L322.021 77.6245C321.177 78.1503 320.455 78.8835 319.912 79.7669C319.368 80.6503 319.017 81.66 318.887 82.7171Z" fill="#455A64"/>
<path d="M318.887 101.416C318.887 103.14 320.297 103.644 322.021 102.543L369.613 72.3058C370.457 71.7801 371.179 71.0469 371.722 70.1635C372.266 69.2801 372.617 68.2704 372.747 67.2133C372.747 65.4892 371.337 64.9853 369.613 66.086L322.021 96.323C321.177 96.8488 320.455 97.582 319.912 98.4654C319.368 99.3488 319.017 100.358 318.887 101.416Z" fill="#455A64"/>
<path d="M318.887 120.076C318.887 121.8 320.297 122.304 322.021 121.203L369.613 90.9661C370.457 90.4403 371.179 89.7072 371.722 88.8238C372.266 87.9404 372.617 86.9307 372.747 85.8736C372.747 84.1495 371.337 83.6456 369.613 84.7463L322.021 114.983C321.177 115.509 320.455 116.242 319.912 117.126C319.368 118.009 319.017 119.019 318.887 120.076Z" fill="#455A64"/>
<path d="M260.182 176.067C260.182 177.791 261.58 178.295 263.316 177.195L369.65 109.559C370.494 109.035 371.217 108.302 371.761 107.419C372.305 106.535 372.655 105.524 372.783 104.467C372.783 102.743 371.373 102.252 369.65 103.339L263.316 170.975C262.47 171.498 261.747 172.231 261.203 173.115C260.66 173.998 260.31 175.009 260.182 176.067Z" fill="#455A64"/>
<path d="M260.182 194.726C260.182 196.45 261.58 196.954 263.316 195.853L369.65 128.298C370.495 127.77 371.217 127.035 371.761 126.149C372.305 125.264 372.654 124.251 372.783 123.192C372.783 121.481 371.373 120.977 369.65 122.078L263.316 189.634C262.47 190.157 261.747 190.889 261.203 191.773C260.66 192.657 260.31 193.668 260.182 194.726Z" fill="#455A64"/>
<path d="M260.182 213.399C260.182 215.109 261.58 215.613 263.316 214.513L369.65 146.957C370.495 146.43 371.217 145.694 371.761 144.809C372.305 143.923 372.654 142.911 372.783 141.851C372.783 140.14 371.373 139.636 369.65 140.737L263.316 208.293C262.469 208.818 261.745 209.552 261.201 210.438C260.657 211.325 260.308 212.338 260.182 213.399Z" fill="#455A64"/>
<path d="M191.643 412.274L225.907 247.442L416.833 126.136L382.569 290.981L191.643 412.274Z" fill="#02897A"/>
<path d="M238.356 260.346V382.607L282.418 354.611V232.363L238.356 260.346Z" fill="#02897A"/>
<path opacity="0.2" d="M238.356 260.346V382.607L282.418 354.611V232.363L238.356 260.346Z" fill="black"/>
<path d="M318.971 455.03C315.223 451.954 279.092 421.571 260.725 378.112C241.176 331.907 241.201 278.011 241.201 257.734V257.097L372.181 173.892C372.181 194.355 372.181 248.331 391.813 294.695C409.758 337.133 444.504 367.131 450.012 371.719L318.971 455.03Z" fill="white"/>
<path d="M371.578 175.086C371.578 196.411 371.952 249.352 391.271 295.026C408.613 336.005 441.587 365.473 448.927 371.693L319.008 454.234C313.934 450.03 279.164 420.151 261.279 377.886C241.755 331.814 241.755 278.024 241.755 257.773V257.521L371.53 175.072L371.578 175.086ZM372.735 172.778L240.55 256.765C240.55 275.849 240.188 331.297 260.134 378.443C279.767 424.713 318.887 455.826 318.887 455.826L451.108 371.825C451.108 371.825 411.94 340.713 392.367 294.442C372.41 247.296 372.783 191.849 372.783 172.765L372.735 172.778Z" fill="#02897A"/>
<path opacity="0.7" d="M371.578 175.086C371.578 196.411 371.952 249.352 391.271 295.026C408.613 336.005 441.587 365.473 448.927 371.693L319.008 454.234C313.934 450.03 279.164 420.151 261.279 377.886C241.755 331.814 241.755 278.024 241.755 257.773V257.521L371.53 175.072L371.578 175.086ZM372.735 172.778L240.55 256.765C240.55 275.849 240.188 331.297 260.134 378.443C279.767 424.713 318.887 455.826 318.887 455.826L451.108 371.825C451.108 371.825 411.94 340.713 392.367 294.442C372.41 247.296 372.783 191.849 372.783 172.765L372.735 172.778Z" fill="white"/>
<path d="M357.827 200.946L316.031 227.47C315.194 227.976 314.481 228.698 313.952 229.573C313.423 230.448 313.095 231.451 312.994 232.496C313.054 234.18 314.512 234.658 316.236 233.557L358.044 207.033C358.87 206.531 359.576 205.819 360.102 204.957C360.628 204.094 360.96 203.105 361.069 202.073C360.996 200.323 359.562 199.845 357.827 200.946Z" fill="#455A64"/>
<path d="M358.719 219.049L316.923 245.572C316.096 246.061 315.395 246.773 314.885 247.64C314.375 248.507 314.073 249.502 314.006 250.532C314.139 252.163 315.657 252.601 317.381 251.5L359.189 224.977C360.011 224.489 360.707 223.78 361.211 222.914C361.715 222.049 362.011 221.056 362.069 220.03C361.949 218.385 360.454 217.988 358.719 219.049Z" fill="#455A64"/>
<path d="M360.394 236.647L318.586 263.171C316.862 264.272 315.609 266.46 315.814 268.038C316.019 269.616 317.597 270.027 319.333 268.927L361.141 242.403C362.864 241.302 364.094 239.127 363.877 237.549C363.66 235.971 362.117 235.547 360.394 236.647Z" fill="#455A64"/>
<path d="M362.9 253.715L321.092 280.239C319.369 281.34 318.176 283.488 318.465 285.026C318.754 286.565 320.393 286.91 322.081 285.809L363.877 259.285C365.612 258.184 366.769 256.049 366.48 254.511C366.191 252.972 364.684 252.614 362.9 253.715Z" fill="#455A64"/>
<path d="M366.299 270.213L324.491 296.737C322.768 297.838 321.647 299.933 322.081 301.405C322.515 302.877 324.166 303.209 325.889 302.108L367.697 275.584C369.433 274.483 370.517 272.401 370.108 270.916C369.698 269.431 368.023 269.112 366.299 270.213Z" fill="#455A64"/>
<path d="M370.71 286.114L268.824 350.845C267.1 351.946 266.052 353.988 266.522 355.407C266.992 356.826 268.787 357.092 270.511 355.991L372.398 291.26C374.133 290.159 375.133 288.13 374.663 286.698C374.193 285.266 372.373 285.014 370.71 286.114Z" fill="#455A64"/>
<path d="M376.073 301.299L274.199 366.03C272.463 367.13 271.511 369.12 272.09 370.472C272.668 371.825 274.5 372.037 276.26 370.937L378.146 306.205C379.882 305.105 380.81 303.115 380.231 301.763C379.653 300.41 377.809 300.211 376.073 301.299Z" fill="#455A64"/>
<path d="M382.762 315.768L280.875 380.499C279.14 381.599 278.284 383.536 278.971 384.822C279.658 386.108 281.623 386.241 283.358 385.14L385.172 320.409C386.896 319.322 387.727 317.399 387.04 316.112C386.354 314.826 384.449 314.667 382.762 315.768Z" fill="#455A64"/>
<path d="M390.56 329.454L288.685 394.171C286.95 395.272 286.178 397.169 286.962 398.375C287.745 399.582 289.806 399.702 291.541 398.588L393.416 333.857C395.151 332.756 395.899 330.886 395.115 329.666C394.332 328.446 392.295 328.353 390.56 329.454Z" fill="#455A64"/>
<path d="M399.454 342.463L297.567 407.181C295.844 408.282 295.157 410.125 296.025 411.279C296.892 412.433 299.026 412.486 300.761 411.385L402.648 346.628C404.371 345.527 405.058 343.71 404.166 342.556C403.274 341.402 401.189 341.323 399.454 342.463Z" fill="#455A64"/>
<path d="M409.276 354.85L307.426 419.567C305.69 420.668 305.015 422.472 306.028 423.546C307.04 424.62 309.185 424.647 310.909 423.546L412.795 358.815C414.531 357.714 415.133 355.937 414.169 354.836C413.205 353.736 411.036 353.762 409.276 354.85Z" fill="#455A64"/>
<path d="M420.123 366.693L318.236 431.411C316.513 432.511 315.946 434.275 317.031 435.323C318.116 436.371 320.333 436.331 322.069 435.23L423.871 370.499C425.594 369.398 426.137 367.674 425.076 366.613C424.016 365.552 421.81 365.592 420.123 366.693Z" fill="#455A64"/>
<path d="M300.882 237.138L252.819 267.64C253.349 286.803 255.337 314.441 262.617 342.278L310.692 311.775C303.4 283.939 301.412 256.288 300.882 237.138Z" fill="#02897A"/>
<path opacity="0.8" d="M300.882 237.138L252.819 267.64C253.349 286.803 255.337 314.441 262.617 342.278L310.692 311.775C303.4 283.939 301.412 256.288 300.882 237.138Z" fill="#11B5E4"/>
<path d="M272.415 263.423C272.48 262.186 272.305 260.948 271.902 259.791C271.499 258.634 270.877 257.584 270.077 256.712L252.819 267.666C252.963 272.732 253.204 278.395 253.626 284.496C255.871 284.78 258.142 284.318 260.146 283.17C266.931 279.748 272.415 270.876 272.415 263.423Z" fill="#02897A"/>
<path opacity="0.6" d="M272.415 263.423C272.48 262.186 272.305 260.948 271.902 259.791C271.499 258.634 270.877 257.584 270.077 256.712L252.819 267.666C252.963 272.732 253.204 278.395 253.626 284.496C255.871 284.78 258.142 284.318 260.146 283.17C266.931 279.748 272.415 270.876 272.415 263.423Z" fill="white"/>
<path d="M306.606 293.474C303.4 289.032 296.88 275.306 294.096 269.325C293.987 269.088 293.816 268.893 293.604 268.765C293.393 268.637 293.152 268.582 292.912 268.606C292.672 268.63 292.444 268.733 292.258 268.901C292.071 269.07 291.935 269.296 291.867 269.55C288.855 280.879 287.107 292.569 286.66 304.362C282.646 300.856 279.196 296.633 276.452 291.87C276.335 291.685 276.173 291.541 275.984 291.455C275.795 291.369 275.588 291.344 275.387 291.383C275.185 291.422 274.998 291.523 274.847 291.675C274.697 291.827 274.589 292.024 274.536 292.241C269.282 314.508 271.921 336.416 271.921 336.416L310.692 311.776C309.077 305.622 307.739 299.495 306.606 293.474Z" fill="#02897A"/>
<path opacity="0.6" d="M306.606 293.474C303.4 289.032 296.88 275.306 294.096 269.325C293.987 269.088 293.816 268.893 293.604 268.765C293.393 268.637 293.152 268.582 292.912 268.606C292.672 268.63 292.444 268.733 292.258 268.901C292.071 269.07 291.935 269.296 291.867 269.55C288.855 280.879 287.107 292.569 286.66 304.362C282.646 300.856 279.196 296.633 276.452 291.87C276.335 291.685 276.173 291.541 275.984 291.455C275.795 291.369 275.588 291.344 275.387 291.383C275.185 291.422 274.998 291.523 274.847 291.675C274.697 291.827 274.589 292.024 274.536 292.241C269.282 314.508 271.921 336.416 271.921 336.416L310.692 311.776C309.077 305.622 307.739 299.495 306.606 293.474Z" fill="white"/>
</g>
<defs>
<clipPath id="clip0_29_2">
<rect width="540" height="473" fill="white"/>
</clipPath>
</defs>
</svg>
