<svg width="181" height="36" viewBox="0 0 181 36" fill="none" xmlns="http://www.w3.org/2000/svg">
<g clip-path="url(#clip0_2:2)">
<path d="M76.91 10.72C76.91 11.94 76.63 13.06 76.07 14.08C75.51 15.08 74.65 15.89 73.49 16.51C72.33 17.13 70.89 17.44 69.17 17.44H65.99V25H60.86V3.94H69.17C70.85 3.94 72.27 4.23 73.43 4.81C74.59 5.39 75.46 6.19 76.04 7.21C76.62 8.23 76.91 9.4 76.91 10.72ZM68.78 13.36C69.76 13.36 70.49 13.13 70.97 12.67C71.45 12.21 71.69 11.56 71.69 10.72C71.69 9.88 71.45 9.23 70.97 8.77C70.49 8.31 69.76 8.08 68.78 8.08H65.99V13.36H68.78ZM84.7107 11.05C85.3107 10.13 86.0607 9.41 86.9607 8.89C87.8607 8.35 88.8607 8.08 89.9607 8.08V13.51H88.5507C87.2707 13.51 86.3107 13.79 85.6707 14.35C85.0307 14.89 84.7107 15.85 84.7107 17.23V25H79.5807V8.26H84.7107V11.05ZM100.033 25.24C98.3927 25.24 96.9127 24.89 95.5927 24.19C94.2927 23.49 93.2627 22.49 92.5027 21.19C91.7627 19.89 91.3927 18.37 91.3927 16.63C91.3927 14.91 91.7727 13.4 92.5327 12.1C93.2927 10.78 94.3327 9.77 95.6527 9.07C96.9727 8.37 98.4527 8.02 100.093 8.02C101.733 8.02 103.213 8.37 104.533 9.07C105.853 9.77 106.893 10.78 107.653 12.1C108.413 13.4 108.793 14.91 108.793 16.63C108.793 18.35 108.403 19.87 107.623 21.19C106.863 22.49 105.813 23.49 104.473 24.19C103.153 24.89 101.673 25.24 100.033 25.24ZM100.033 20.8C101.013 20.8 101.843 20.44 102.523 19.72C103.223 19 103.573 17.97 103.573 16.63C103.573 15.29 103.233 14.26 102.553 13.54C101.893 12.82 101.073 12.46 100.093 12.46C99.0927 12.46 98.2627 12.82 97.6027 13.54C96.9427 14.24 96.6127 15.27 96.6127 16.63C96.6127 17.97 96.9327 19 97.5727 19.72C98.2327 20.44 99.0527 20.8 100.033 20.8ZM110.494 16.6C110.494 14.88 110.814 13.37 111.454 12.07C112.114 10.77 113.004 9.77 114.124 9.07C115.244 8.37 116.494 8.02 117.874 8.02C118.974 8.02 119.974 8.25 120.874 8.71C121.794 9.17 122.514 9.79 123.034 10.57V2.8H128.164V25H123.034V22.6C122.554 23.4 121.864 24.04 120.964 24.52C120.084 25 119.054 25.24 117.874 25.24C116.494 25.24 115.244 24.89 114.124 24.19C113.004 23.47 112.114 22.46 111.454 21.16C110.814 19.84 110.494 18.32 110.494 16.6ZM123.034 16.63C123.034 15.35 122.674 14.34 121.954 13.6C121.254 12.86 120.394 12.49 119.374 12.49C118.354 12.49 117.484 12.86 116.764 13.6C116.064 14.32 115.714 15.32 115.714 16.6C115.714 17.88 116.064 18.9 116.764 19.66C117.484 20.4 118.354 20.77 119.374 20.77C120.394 20.77 121.254 20.4 121.954 19.66C122.674 18.92 123.034 17.91 123.034 16.63ZM148.406 8.26V25H143.276V22.72C142.756 23.46 142.046 24.06 141.146 24.52C140.266 24.96 139.286 25.18 138.206 25.18C136.926 25.18 135.796 24.9 134.816 24.34C133.836 23.76 133.076 22.93 132.536 21.85C131.996 20.77 131.726 19.5 131.726 18.04V8.26H136.826V17.35C136.826 18.47 137.116 19.34 137.696 19.96C138.276 20.58 139.056 20.89 140.036 20.89C141.036 20.89 141.826 20.58 142.406 19.96C142.986 19.34 143.276 18.47 143.276 17.35V8.26H148.406ZM151.07 16.63C151.07 14.89 151.42 13.37 152.12 12.07C152.84 10.77 153.83 9.77 155.09 9.07C156.37 8.37 157.83 8.02 159.47 8.02C161.57 8.02 163.32 8.57 164.72 9.67C166.14 10.77 167.07 12.32 167.51 14.32H162.05C161.59 13.04 160.7 12.4 159.38 12.4C158.44 12.4 157.69 12.77 157.13 13.51C156.57 14.23 156.29 15.27 156.29 16.63C156.29 17.99 156.57 19.04 157.13 19.78C157.69 20.5 158.44 20.86 159.38 20.86C160.7 20.86 161.59 20.22 162.05 18.94H167.51C167.07 20.9 166.14 22.44 164.72 23.56C163.3 24.68 161.55 25.24 159.47 25.24C157.83 25.24 156.37 24.89 155.09 24.19C153.83 23.49 152.84 22.49 152.12 21.19C151.42 19.89 151.07 18.37 151.07 16.63ZM179.585 20.65V25H176.975C175.115 25 173.665 24.55 172.625 23.65C171.585 22.73 171.065 21.24 171.065 19.18V12.52H169.025V8.26H171.065V4.18H176.195V8.26H179.555V12.52H176.195V19.24C176.195 19.74 176.315 20.1 176.555 20.32C176.795 20.54 177.195 20.65 177.755 20.65H179.585Z" fill="#173A56"/>
<path fill-rule="evenodd" clip-rule="evenodd" d="M3.13307 34.4586C1.40988 34.4586 1.6082e-07 33.0487 1.49105e-07 31.3255L7.46349e-08 20.3719L7.88626 20.3719L7.88626 20.3598L12.6263 20.3598C13.8482 20.3285 14.8821 19.2632 14.8821 18.01C14.8821 16.7254 13.8168 15.6602 12.5323 15.6602L6.26614 15.6602L6.26614 15.6622L4.26148e-08 15.6622L2.13005e-08 12.5271C9.58517e-09 10.8039 1.40988 9.39404 3.13307 9.39404L12.5323 9.39404C14.9134 9.39404 16.9499 10.24 18.6104 11.9318C20.3023 13.5924 21.1482 15.6289 21.1482 18.01C21.1482 20.3598 20.3336 22.3963 18.6731 24.0568C17.0126 25.7173 15.0074 26.5946 12.6576 26.6259L6.26614 26.6259L6.26614 31.3255C6.26614 33.0487 4.85626 34.4586 3.13307 34.4586Z" fill="#02BC6B"/>
<path fill-rule="evenodd" clip-rule="evenodd" d="M25.0974 5.75781C28.5589 9.11995 30.3031 13.3073 30.3031 18.0673C30.3031 22.7473 28.6319 26.9307 25.2239 30.3034L20.3852 25.7508C22.5046 23.6533 23.545 21.128 23.545 18.0673C23.545 14.9832 22.4733 12.4619 20.303 10.3538L25.0974 5.75781Z" fill="#02897A"/>
<path fill-rule="evenodd" clip-rule="evenodd" d="M32.5055 -3.14562e-08C37.4912 4.97781 40 11.1499 40 18.2338C40 25.2071 37.5923 31.3753 32.6885 36.3638L28.0187 31.8009C31.6715 28.085 33.4614 23.5781 33.4614 18.2338C33.4614 12.8358 31.6112 8.33276 27.8787 4.60616L32.5055 -3.14562e-08Z" fill="#035B81"/>
<path fill-rule="evenodd" clip-rule="evenodd" d="M-1.14326e-05 26.6524L6.26613 26.6524L6.26613 31.326C6.26613 33.0492 4.85625 34.4591 3.13306 34.4591C1.40987 34.4591 -1.13891e-05 33.0492 -1.14009e-05 31.326L-1.14326e-05 26.6524Z" fill="#028E37"/>
</g>
<defs>
<clipPath id="clip0_2:2">
<rect width="181" height="36" fill="white"/>
</clipPath>
</defs>
</svg>
